<svg xmlns="http://www.w3.org/2000/svg" width="1080" height="350" viewBox="0 0 1080 350" role="img" aria-label="Place-value addition diagram for 58271 plus 32989 equals 91260">
  <defs>
    <marker id="b" markerWidth="9" markerHeight="9" refX="7" refY="4.5" orient="auto"><path d="M0,0 L9,4.5 L0,9z" fill="#13aeea"/></marker><marker id="p" markerWidth="9" markerHeight="9" refX="7" refY="4.5" orient="auto"><path d="M0,0 L9,4.5 L0,9z" fill="#df147d"/></marker><marker id="o" markerWidth="9" markerHeight="9" refX="7" refY="4.5" orient="auto"><path d="M0,0 L9,4.5 L0,9z" fill="#f6ae36"/></marker><marker id="g" markerWidth="9" markerHeight="9" refX="7" refY="4.5" orient="auto"><path d="M0,0 L9,4.5 L0,9z" fill="#07974c"/></marker><marker id="r" markerWidth="9" markerHeight="9" refX="7" refY="4.5" orient="auto"><path d="M0,0 L9,4.5 L0,9z" fill="#5a391b"/></marker>
  </defs>
  <rect width="1080" height="350" rx="18" fill="white"/>
  <g fill="#1f2937" font-family="Arial, sans-serif" font-size="38" text-anchor="middle"><text x="100" y="55">5</text><text x="190" y="55">8</text><text x="280" y="55">2</text><text x="370" y="55">7</text><text x="460" y="55">1</text><text x="530" y="55">+</text><text x="620" y="55">3</text><text x="710" y="55">2</text><text x="800" y="55">9</text><text x="890" y="55">8</text><text x="980" y="55">9</text></g>
  <g fill="#1f2937" font-family="Arial, sans-serif" font-size="38" text-anchor="middle"><text x="620" y="320">9</text><text x="710" y="320">1</text><text x="800" y="320">2</text><text x="890" y="320">6</text><text x="980" y="320">0</text></g>
  <g fill="none" stroke-linecap="round" stroke-linejoin="round" stroke-width="5"><path d="M100 82V260H620V307" stroke="#13aeea" marker-end="url(#b)"/><path d="M620 82V235H620V307" stroke="#13aeea" marker-end="url(#b)"/><path d="M190 82V225H710V307" stroke="#df147d" marker-end="url(#p)"/><path d="M710 82V200H710V307" stroke="#df147d" marker-end="url(#p)"/><path d="M280 82V190H800V307" stroke="#f6ae36" marker-end="url(#o)"/><path d="M800 82V165H800V307" stroke="#f6ae36" marker-end="url(#o)"/><path d="M370 82V155H890V307" stroke="#07974c" marker-end="url(#g)"/><path d="M890 82V130H890V307" stroke="#07974c" marker-end="url(#g)"/><path d="M460 82V120H980V307" stroke="#5a391b" marker-end="url(#r)"/><path d="M980 82V98H980V307" stroke="#5a391b" marker-end="url(#r)"/></g>
  <g fill="#13aeea"><circle cx="100" cy="82" r="7"/><circle cx="620" cy="82" r="7"/></g><g fill="#df147d"><circle cx="190" cy="82" r="7"/><circle cx="710" cy="82" r="7"/></g><g fill="#f6ae36"><circle cx="280" cy="82" r="7"/><circle cx="800" cy="82" r="7"/></g><g fill="#07974c"><circle cx="370" cy="82" r="7"/><circle cx="890" cy="82" r="7"/></g><g fill="#5a391b"><circle cx="460" cy="82" r="7"/><circle cx="980" cy="82" r="7"/></g>
</svg>
